<svg xmlns="http://www.w3.org/2000/svg" viewBox="0 0 66.146 30.427"><g id="jazoo-svg"><path d="M2.633 20.757c2.16-5.448 4.305-10.878 6.709-16.631.556-1.293 1.383-2.36 2.693-3.024C27.026.9 41.425.802 55.975.913c1.086.08 3.373 1.8 3.59 3.496l-.496 5.032c2.88.674 5.688 1.174 6.213 3.52-1.235 4.919-3.475 7.453-5.268 9.52 1.622-2.81 3.15-6.11 2.622-8.575-1.32-1.552-2.916-2.652-5.244-2.882-2.146-.462-5.676-.037-8.457-.095.114-1.868-.128-3.285.614-5.953l7.229.095c.263-.414.59-.786 0-1.748-20.048-1.309-32.389-.684-44.412.047-.56-.326-5.855 10.146-9.733 17.387zM.415 21.886c-.337 1.421-.412 1.605-.24 1.99 3.745-.01 6.975-.2 9.828-.52-1.939-.243-2.8-.22-6.898-.993a1.963 1.963 0 0 1-.73-.414c-.595-.02-1.232-.042-1.96-.063zm9.588 1.47c-.972 1.992-2.207 6.531 2.93 6.898 4.79-.306 6.055-3.044 7.276-5.812l25.418.236c-1.554 2.914-.55 4.972 1.37 5.434 3.045.657 5.427-.427 7.466-2.41 1.069-1.7 2.031-3.402 1.984-5.103-.63-1.522-1.26-1.73-1.89-2.456.016 2.027 1.26 3.748-1.512 6.472-2.046 2.122-3.364 2.145-4.913 2.032-2.665-.87-1.21-4.093-.426-6.473l-27.497-.378c-.474-.787-1.418-1.338-2.646-1.748 1.028 1.603 1.929 2.863.52 5.197-1.322 1.72-2.43 2.591-4.914 3.119-3.335.274-3.088-2.75-3.166-5.009zm53.423-.748c-.552.61-.664 1.185-1.735 1.834-1.723-.224-3.366-.51-4.889-.89 3.29-1.434 3.909-.836 6.624-.944z"/><path d="M19.712 9.37c-.459 1.66-.354 4.6-1.417 4.89-.635-.258-.633-.703-.52-1.18l-1.334-.097c.173 1.065-.283 2.334 1.547 2.86.757.263 1.2-.136 1.79-.21.954-3.264 1.167-4.453 1.446-6.239z"/><path fill-rule="evenodd" d="M20.54 16.34c.888-2.403 1.804-4.793 3-7.064.597-.042 1.264-.112 1.653-.071-.042 2.776.183 5.33.402 7.89l-1.347-.189c.073-.502-.026-.928-.354-1.252L22.5 15.56c-.114.387-.399.837-.378 1.134zm2.235-2.31c-.259-.362.808-2.309 1.486-3.107-.017 1.338.046 2.582.117 3.207-.543-.132-1.14-.207-1.603-.1z"/><path d="M27.674 8.59c-.364.802-.464 1.428-.567 2.056.835-.156 1.63-.28 2.244-.26l-2.646 4.489c-.203.907-.127 1.575-.024 2.22 1.774-.041 2.87.105 3.851.284.42-.995.516-1.72.685-2.504-.752-.003-1.458.018-2.291-.024.414-1.262 1.348-2.985 2.635-5.076.147-.665.25-1.52.2-2.106-1.486.246-2.951.502-4.087.922z"/><path fill-rule="evenodd" d="M34.873 6.514c-1.414.056-2.465 1.1-3.045 5.762-.172 3.71.636 4.48 1.637 4.778 1.397.199 2.695-1.238 3.325-5.646.235-2.78.033-4.83-1.917-4.894zm-.105 1.904c-.694.077-1.59 1.633-1.77 3.59.012 1.565.046 3.082.768 3.075.958-.127 1.404-1.683 1.77-3.458.127-1.118.326-3.1-.768-3.207zM40.498 3.657c-2.261.711-2.504 3.709-2.933 6.693-.453 5.677.924 5.538 1.62 5.68 1.32-.077 2.637-1.171 3.15-6.31.027-2.602.155-5.296-1.837-6.063zm-.318 2.74c-.936.276-1.317 1.121-1.57 3.942-.143 1.725-.16 3.223.752 3.023.87.085 1.332-1.612 1.67-3.842.104-1.606.185-3.18-.852-3.124z"/></g></svg>