<svg xmlns="http://www.w3.org/2000/svg"
   viewBox="0 0 66.145832 30.427085"
   version="1.1"
   id="svg8">
  <g
     id="jazoo-svg"
     transform="translate(0,-266.57287)">
    <g
       id="jazoo"
       transform="translate(-30.629223,253.77913)">
      <path
         id="truck-frame"
         d="m 33.261905,33.550595 c 2.159405,-5.447459 4.30513,-10.877817 6.709077,-16.630953 0.555754,-1.292886 1.382765,-2.359724 2.69308,-3.023809 14.991433,-0.203578 29.389267,-0.300387 43.939732,-0.188989 1.08641,0.0807 3.373219,1.800385 3.590774,3.49628 l -0.496094,5.031809 c 2.879044,0.673553 5.687378,1.174168 6.212983,3.519902 -1.235329,4.918637 -3.474924,7.452559 -5.268042,9.520275 1.622076,-2.810521 3.15014,-6.110107 2.622209,-8.575334 -1.32068,-1.552244 -2.916493,-2.651835 -5.244419,-2.882068 -2.14555,-0.461535 -5.676319,-0.03727 -8.457217,-0.09449 0.113811,-1.868652 -0.127296,-3.285589 0.614209,-5.953125 l 7.228795,0.09449 c 0.263231,-0.413493 0.590846,-0.785597 0,-1.74814 C 67.358757,14.808091 55.018178,15.432327 42.994791,16.163693 42.434501,15.837912 37.139832,26.30984 33.261905,33.5506 Z
         M 31.044652,34.679284 c -0.337286,1.421461 -0.41221,1.605741 -0.239597,1.989613 3.743896,-0.0094 6.973895,-0.198669 9.827381,-0.519715 -1.939075,-0.242359 -2.800506,-0.22039 -6.898065,-0.992188 -0.293502,-0.08797 -0.525945,-0.236996 -0.730652,-0.41376 -0.594062,-0.02132 -1.231743,-0.04263 -1.959067,-0.06395 z
         M 40.632436,36.149182 c -0.971818,1.992824 -2.206854,6.531586 2.92932,6.898063 4.790789,-0.305789 6.055832,-3.043126 7.276042,-5.811383 l 25.418898,0.236231 c -1.554595,2.913814 -0.550601,4.971653 1.370164,5.433408 3.044519,0.656764 5.426053,-0.426808 7.465028,-2.409598 1.069005,-1.700893 2.031523,-3.401787 1.984375,-5.10268 -0.62996,-1.522798 -1.259919,-1.729811 -1.889879,-2.456844 0.01553,2.027739 1.26065,3.74808 -1.511906,6.472841 -2.046251,2.121078 -3.363805,2.144192 -4.913691,2.031624 -2.664958,-0.869887 -1.210053,-4.093119 -0.425222,-6.472843 L 50.837798,34.590025 c -0.4734,-0.786985 -1.417555,-1.338593 -2.645834,-1.748139 1.028709,1.603316 1.929146,2.862413 0.519716,5.197171 -1.320993,1.720488 -2.429154,2.590972 -4.913689,3.118305 -3.33434,0.274772 -3.087914,-2.749964 -3.165555,-5.00818 z
         M 94.05474,35.401579 c -0.55117,0.609362 -0.663083,1.184936 -1.734057,1.834283 -1.722977,-0.22405 -3.366645,-0.509785 -4.88937,-0.889586 3.289193,-1.434535 3.908921,-0.837035 6.623427,-0.944697 z" />
      <path
         id="letter-j"
         d="M 50.341704,22.164061 C 49.882457,23.824058 49.987715,26.7636 48.924291,27.05413 48.28928,26.79622 48.291244,26.350964 48.404576,25.872953 l -1.333888,-0.09617 c 0.172687,1.064788 -0.283909,2.334094 1.546499,2.860124 0.757387,0.262729 1.20064,-0.136218 1.789656,-0.210231 0.9547,-3.26417 1.167836,-4.453062 1.446764,-6.23898 z" />
      <path
         id="letter-a"
         fill-rule="evenodd"
         d="m 51.168527,29.132998 c 0.888264,-2.40239 1.805053,-4.792555 3.000184,-7.063431 0.597782,-0.04225 1.264553,-0.112096 1.653646,-0.07087 -0.04177,2.776445 0.183143,5.330661 0.401601,7.890253 l -1.346542,-0.188987 c 0.07266,-0.502137 -0.02629,-0.928006 -0.354351,-1.252048 l -1.393788,-0.09449 c -0.114106,0.386936 -0.39875,0.837564 -0.377976,1.133927 z
         M 53.403793,26.823915 c -0.258125,-0.362413 0.808896,-2.309158 1.486685,-3.107008 -0.01761,1.337993 0.04545,2.581901 0.116928,3.207236 -0.54355,-0.132834 -1.140036,-0.207317 -1.603613,-0.100228 z" />
      <path
         id="letter-z"
         d="m 58.302826,21.384486 c -0.363821,0.801637 -0.46367,1.427293 -0.566962,2.055245 0.835344,-0.156433 1.629528,-0.279938 2.244232,-0.259859 l -2.645833,4.488467 c -0.203379,0.907777 -0.126995,1.575758 -0.02363,2.220611 1.773301,-0.04155 2.8695,0.104985 3.850632,0.283482 0.420758,-0.995028 0.516112,-1.718887 0.685083,-2.504093 -0.752397,-0.0022 -1.458483,0.01883 -2.29148,-0.02363 0.414144,-1.261601 1.348556,-2.984883 2.635555,-5.075697 0.14672,-0.665025 0.250005,-1.51981 0.199265,-2.105851 -1.485859,0.245322 -2.950749,0.50113 -4.086862,0.921325 z" />
      <path
         id="letter-o"
         fill-rule="evenodd"
         d="m 65.502629,19.307308 c -1.413933,0.05672 -2.465064,1.101254 -3.045083,5.762651 -0.172457,3.709082 0.635861,4.479594 1.637028,4.777443 1.396433,0.199076 2.694508,-1.238102 3.324164,-5.646069 0.235457,-2.779838 0.03373,-4.830194 -1.916109,-4.894025 z
         M 65.397511,21.211255 c -0.69402,0.0772 -1.590788,1.633845 -1.77066,3.591435 0.01262,1.564505 0.04665,3.081511 0.7684,3.073598 0.957895,-0.126979 1.403514,-1.68294 1.770661,-3.457798 0.126308,-1.117869 0.325121,-3.099561 -0.768401,-3.207235 z" />
      <path
         id="letter-o-2"
         fill-rule="evenodd"
         d="m 71.127103,16.450517 c -2.261288,0.711221 -2.503896,3.708788 -2.933047,6.693202 -0.452491,5.677295 0.924231,5.538321 1.620322,5.679477 1.320467,-0.0762 2.636486,-1.170699 3.150203,-6.309002 0.02706,-2.60264 0.154291,-5.296339 -1.837478,-6.063677 z
         M 70.80972,19.190029 c -0.936521,0.276279 -1.317164,1.121877 -1.57021,3.942226 -0.14311,1.725708 -0.161204,3.223445 0.751697,3.023486 0.870556,0.08505 1.33164,-1.612316 1.670434,-3.841999 0.103151,-1.60623 0.184526,-3.180679 -0.851921,-3.123713 z" />
    </g>
  </g>
</svg>