<?xml version="1.0" standalone="no"?>
<!DOCTYPE svg PUBLIC "-//W3C//DTD SVG 20010904//EN"
 "http://www.w3.org/TR/2001/REC-SVG-20010904/DTD/svg10.dtd">
<svg version="1.0" xmlns="http://www.w3.org/2000/svg"
 width="381.000000pt" height="381.000000pt" viewBox="0 0 381.000000 381.000000"
 preserveAspectRatio="xMidYMid meet">
<metadata>
Created by potrace 1.11, written by Peter Selinger 2001-2013
</metadata>
<g transform="translate(0.000000,381.000000) scale(0.100000,-0.100000)"
fill="#000000" stroke="none">
<path d="M654 2718 c-58 -62 -104 -141 -185 -321 -109 -242 -318 -801 -304
-815 2 -2 16 20 31 50 39 78 233 458 329 643 45 88 104 202 130 253 l47 92 56
0 c32 0 598 0 1258 0 1168 0 1203 0 1247 -19 42 -18 67 -44 67 -70 0 -8 -75
-11 -234 -11 l-234 0 1 -187 2 -187 270 -2 c217 -1 281 -4 325 -17 146 -43
209 -135 189 -273 -5 -33 -13 -68 -18 -79 -53 -128 -140 -279 -167 -289 -9 -3
-58 -6 -109 -6 l-94 0 -11 43 c-6 23 -16 53 -23 66 -10 21 -13 12 -18 -73 -6
-80 -12 -108 -37 -159 -98 -199 -301 -257 -412 -117 -30 38 -34 49 -33 105 1
70 28 143 71 189 l27 29 -25 -13 c-14 -7 -36 -22 -49 -32 -23 -17 -38 -18
-190 -14 -156 5 -330 10 -771 21 -606 15 -615 15 -625 32 -52 81 -68 103 -72
99 -2 -2 1 -23 7 -47 30 -109 16 -210 -41 -304 -78 -129 -230 -186 -342 -128
-88 45 -117 92 -117 186 0 42 24 114 47 139 28 31 -1 20 -35 -13 l-32 -31
-137 6 c-264 12 -276 15 -268 58 2 10 -2 18 -8 19 -7 0 -47 1 -90 2 l-77 2 0
-72 0 -71 141 1 c78 0 160 4 183 8 23 4 66 10 96 14 30 4 73 11 95 16 22 4 43
9 47 9 4 0 -5 -25 -19 -56 -52 -115 -15 -228 97 -289 51 -28 62 -30 160 -30
99 0 109 2 171 32 100 49 159 114 202 224 l15 36 728 0 729 0 1 -61 c1 -97 43
-156 143 -203 47 -22 63 -25 135 -21 95 5 156 32 223 98 45 45 103 149 103
186 0 13 4 25 9 29 6 3 85 6 178 6 185 2 173 -2 261 76 l34 29 -54 3 c-29 2
-64 4 -78 6 -14 2 -36 4 -48 4 -21 1 -17 8 38 69 132 143 212 288 218 395 5
83 -8 117 -61 162 -43 37 -164 88 -234 100 l-42 7 -3 176 c-3 159 -5 180 -23
203 -28 37 -76 68 -143 93 -57 21 -64 21 -1337 24 l-1280 3 -31 -33z"/>
<path d="M2320 2442 c-50 -49 -62 -93 -66 -232 -4 -176 25 -307 80 -359 30
-28 87 -37 126 -21 34 14 73 74 86 130 4 19 9 42 11 50 2 8 4 56 4 105 2 147
-16 233 -63 302 -34 51 -54 63 -104 63 -29 0 -44 -8 -74 -38z m108 -133 c27
-28 41 -108 38 -206 -3 -89 -21 -133 -56 -133 -36 0 -58 67 -64 195 -3 80 8
134 32 153 22 16 28 15 50 -9z"/>
<path d="M1995 2392 c-16 -11 -36 -26 -42 -34 -25 -30 -45 -105 -48 -183 -7
-165 33 -287 106 -323 127 -63 210 47 204 270 -5 173 -66 288 -151 288 -21 0
-52 -8 -69 -18z m88 -130 c32 -27 51 -195 28 -254 -15 -39 -44 -52 -71 -30
-27 22 -39 77 -40 173 0 61 4 81 20 102 21 27 38 29 63 9z"/>
<path d="M1715 2335 c-60 -13 -112 -25 -115 -27 -7 -4 -8 -59 -2 -76 4 -10 20
-12 66 -7 33 4 64 9 69 12 4 2 7 2 7 -2 0 -11 -68 -140 -94 -178 -41 -60 -56
-94 -57 -129 0 -24 -5 -13 -20 41 -20 79 -60 198 -90 269 -19 44 -28 48 -92
33 -27 -6 -31 -12 -57 -116 -15 -60 -37 -134 -49 -164 -11 -30 -19 -56 -18
-57 1 -2 24 -6 49 -9 45 -6 48 -5 54 19 5 23 11 26 48 26 50 0 61 -7 69 -41 8
-30 20 -34 142 -44 39 -4 77 -8 85 -10 8 -2 50 -7 93 -11 l77 -6 0 56 0 56
-69 0 c-97 0 -106 5 -81 40 11 15 45 76 75 135 48 92 55 113 51 149 -2 22 -5
47 -5 54 -1 15 -2 15 -136 -13z m-277 -231 c16 -54 16 -54 -13 -54 -27 0 -31
17 -19 79 8 38 16 31 32 -25z"/>
<path d="M1163 2233 c-27 -4 -31 -7 -27 -31 19 -141 10 -201 -26 -182 -11 6
-20 17 -20 24 0 10 -13 13 -45 12 -34 -1 -45 -5 -45 -17 0 -30 40 -68 83 -80
71 -19 108 -14 135 16 21 25 23 36 21 109 -3 126 -9 156 -28 154 -9 0 -30 -3
-48 -5z"/>
</g>
</svg>
